<svg xmlns="http://www.w3.org/2000/svg" viewBox="0 0 1024 1024" fill="none">
  <defs>
    <linearGradient id="bg" x1="0" y1="1024" x2="1024" y2="0" gradientUnits="userSpaceOnUse">
      <stop stop-color="#0a111a" />
      <stop offset="1" stop-color="#15283f" />
    </linearGradient>
    <linearGradient id="river" x1="120" y1="900" x2="900" y2="120" gradientUnits="userSpaceOnUse">
      <stop stop-color="#1d4ed8" stop-opacity=".28" />
      <stop offset="1" stop-color="#38bdf8" stop-opacity=".2" />
    </linearGradient>
    <filter id="blur" x="-20%" y="-20%" width="140%" height="140%">
      <feGaussianBlur stdDeviation="10" />
    </filter>
  </defs>
  <rect width="1024" height="1024" fill="url(#bg)" />

  <path d="M82 920L920 82" stroke="#355a80" stroke-width="28" opacity=".3" />
  <path d="M110 890L890 110" stroke="#4f7eab" stroke-width="12" opacity=".35" />

  <path
    d="M128 794C245 762 345 677 420 570C498 459 575 364 734 230C774 196 813 166 858 150"
    stroke="url(#river)"
    stroke-width="120"
    stroke-linecap="round"
    stroke-linejoin="round"
    filter="url(#blur)"
  />
  <path
    d="M138 800C258 770 350 685 426 578C508 463 588 366 746 236C781 208 814 181 866 158"
    stroke="#60a5fa"
    stroke-opacity=".26"
    stroke-width="48"
    stroke-linecap="round"
    stroke-linejoin="round"
  />

  <circle cx="138" cy="886" r="86" fill="#1f2937" stroke="#22d3ee" stroke-opacity=".45" stroke-width="4" />
  <circle cx="886" cy="138" r="86" fill="#1f2937" stroke="#f87171" stroke-opacity=".45" stroke-width="4" />

  <g stroke="#94a3b8" stroke-opacity=".28" stroke-width="3">
    <path d="M180 880C240 750 285 665 390 560" />
    <path d="M150 730C255 640 350 575 515 505" />
    <path d="M490 515C635 450 735 350 845 205" />
    <path d="M205 845C335 770 430 675 560 515" />
    <path d="M510 560C610 448 700 355 826 178" />
  </g>

  <g fill="#334155" fill-opacity=".46" stroke="#64748b" stroke-opacity=".4">
    <circle cx="312" cy="738" r="20" />
    <circle cx="430" cy="620" r="20" />
    <circle cx="548" cy="502" r="20" />
    <circle cx="666" cy="384" r="20" />
    <circle cx="784" cy="266" r="20" />

    <circle cx="252" cy="662" r="18" />
    <circle cx="366" cy="548" r="18" />
    <circle cx="482" cy="432" r="18" />
    <circle cx="598" cy="316" r="18" />
    <circle cx="712" cy="202" r="18" />
  </g>
</svg>

